%TF.GenerationSoftware,KiCad,Pcbnew,9.0.5*%
%TF.CreationDate,2025-12-06T17:21:47+08:00*%
%TF.ProjectId,controller,636f6e74-726f-46c6-9c65-722e6b696361,rev?*%
%TF.SameCoordinates,Original*%
%TF.FileFunction,Copper,L2,Bot*%
%TF.FilePolarity,Positive*%
%FSLAX46Y46*%
G04 Gerber Fmt 4.6, Leading zero omitted, Abs format (unit mm)*
G04 Created by KiCad (PCBNEW 9.0.5) date 2025-12-06 17:21:47*
%MOMM*%
%LPD*%
G01*
G04 APERTURE LIST*
G04 Aperture macros list*
%AMRoundRect*
0 Rectangle with rounded corners*
0 $1 Rounding radius*
0 $2 $3 $4 $5 $6 $7 $8 $9 X,Y pos of 4 corners*
0 Add a 4 corners polygon primitive as box body*
4,1,4,$2,$3,$4,$5,$6,$7,$8,$9,$2,$3,0*
0 Add four circle primitives for the rounded corners*
1,1,$1+$1,$2,$3*
1,1,$1+$1,$4,$5*
1,1,$1+$1,$6,$7*
1,1,$1+$1,$8,$9*
0 Add four rect primitives between the rounded corners*
20,1,$1+$1,$2,$3,$4,$5,0*
20,1,$1+$1,$4,$5,$6,$7,0*
20,1,$1+$1,$6,$7,$8,$9,0*
20,1,$1+$1,$8,$9,$2,$3,0*%
G04 Aperture macros list end*
%TA.AperFunction,ComponentPad*%
%ADD10O,1.050000X1.450000*%
%TD*%
%TA.AperFunction,ComponentPad*%
%ADD11O,1.100000X1.800000*%
%TD*%
%TA.AperFunction,ComponentPad*%
%ADD12R,1.700000X1.700000*%
%TD*%
%TA.AperFunction,ComponentPad*%
%ADD13C,1.700000*%
%TD*%
%TA.AperFunction,ComponentPad*%
%ADD14C,5.400000*%
%TD*%
%TA.AperFunction,ComponentPad*%
%ADD15RoundRect,0.250000X-0.625000X0.350000X-0.625000X-0.350000X0.625000X-0.350000X0.625000X0.350000X0*%
%TD*%
%TA.AperFunction,ComponentPad*%
%ADD16O,1.750000X1.200000*%
%TD*%
%TA.AperFunction,ComponentPad*%
%ADD17C,0.700000*%
%TD*%
%TA.AperFunction,ViaPad*%
%ADD18C,0.600000*%
%TD*%
%TA.AperFunction,ViaPad*%
%ADD19C,1.200000*%
%TD*%
%TA.AperFunction,Conductor*%
%ADD20C,0.200000*%
%TD*%
%TA.AperFunction,Conductor*%
%ADD21C,0.400000*%
%TD*%
G04 APERTURE END LIST*
D10*
%TO.P,J6,6,SH*%
%TO.N,GND*%
X123650000Y-117970000D03*
D11*
%TO.P,J6,7,SH*%
X123350000Y-121000000D03*
D10*
%TO.P,J6,9,SH*%
X128500000Y-117970000D03*
D11*
%TO.P,J6,10,SH*%
X128800000Y-121000000D03*
%TD*%
D12*
%TO.P,J9,1,Pin_1*%
%TO.N,/WiFi_ON*%
X109220000Y-72390000D03*
D13*
%TO.P,J9,2,Pin_2*%
%TO.N,GND*%
X111760000Y-72390000D03*
%TO.P,J9,3,Pin_3*%
%TO.N,/BT_ON*%
X114300000Y-72390000D03*
%TD*%
D12*
%TO.P,J12,1,Pin_1*%
%TO.N,/LED_nACT*%
X115200000Y-117325000D03*
D13*
%TO.P,J12,2,Pin_2*%
%TO.N,GND*%
X115200000Y-119865000D03*
%TD*%
D12*
%TO.P,J10,1,Pin_1*%
%TO.N,/GLOBAL_EN*%
X109220000Y-68580000D03*
D13*
%TO.P,J10,2,Pin_2*%
%TO.N,GND*%
X111760000Y-68580000D03*
%TO.P,J10,3,Pin_3*%
%TO.N,/RUN_PG*%
X114300000Y-68580000D03*
%TD*%
D14*
%TO.P,H1,1,1*%
%TO.N,GND*%
X90000000Y-70000000D03*
%TD*%
D10*
%TO.P,J5,6,SH*%
%TO.N,GND*%
X133550000Y-117940000D03*
D11*
%TO.P,J5,7,SH*%
X133250000Y-120970000D03*
D10*
%TO.P,J5,9,SH*%
X138400000Y-117940000D03*
D11*
%TO.P,J5,10,SH*%
X138700000Y-120970000D03*
%TD*%
D14*
%TO.P,H3,1,1*%
%TO.N,GND*%
X148000000Y-119000000D03*
%TD*%
D15*
%TO.P,J1,1,Pin_1*%
%TO.N,/BAT+*%
X88000000Y-93000000D03*
D16*
%TO.P,J1,2,Pin_2*%
%TO.N,GND*%
X88000000Y-95000000D03*
%TD*%
D14*
%TO.P,H4,1,1*%
%TO.N,GND*%
X90000000Y-119000000D03*
%TD*%
D12*
%TO.P,J8,1,Pin_1*%
%TO.N,/nRPI_BOOT*%
X119200000Y-117325000D03*
D13*
%TO.P,J8,2,Pin_2*%
%TO.N,GND*%
X119200000Y-119865000D03*
%TD*%
D14*
%TO.P,H2,1,1*%
%TO.N,GND*%
X148000000Y-70000000D03*
%TD*%
D12*
%TO.P,J11,1,Pin_1*%
%TO.N,/CVBS*%
X118400000Y-72475000D03*
D13*
%TO.P,J11,2,Pin_2*%
%TO.N,GND*%
X118400000Y-69935000D03*
%TD*%
D17*
%TO.P,SW1,*%
%TO.N,*%
X99230000Y-120850000D03*
X97530000Y-120850000D03*
%TD*%
D12*
%TO.P,J13,1,Pin_1*%
%TO.N,/+1.8v*%
X104000000Y-70725000D03*
D13*
%TO.P,J13,2,Pin_2*%
%TO.N,GND*%
X104000000Y-73265000D03*
%TD*%
D18*
%TO.N,/SDA0*%
X142200000Y-110800000D03*
%TO.N,/SCL0*%
X142400000Y-109600000D03*
D19*
%TO.N,GND*%
X140200000Y-107800000D03*
X140400000Y-105000000D03*
D18*
%TO.N,Net-(D3-A)*%
X103473591Y-117526409D03*
X107500000Y-120500000D03*
D19*
%TO.N,/+5v*%
X102200000Y-80800000D03*
X134600000Y-115800000D03*
%TO.N,/VIN*%
X124000000Y-115800000D03*
X96400000Y-114800000D03*
D18*
%TO.N,/LED3*%
X94400000Y-113000000D03*
X102800000Y-120200000D03*
%TO.N,/+3.3v*%
X137600000Y-116200000D03*
X133200000Y-116600000D03*
%TO.N,/SDA0*%
X127000000Y-80800000D03*
%TO.N,/SCL0*%
X126000000Y-82600000D03*
%TO.N,/BT_ON*%
X120000000Y-82400000D03*
X114600000Y-75600000D03*
%TO.N,/WiFi_ON*%
X118694975Y-96305025D03*
%TO.N,Net-(U1-KEY)*%
X95200000Y-107200000D03*
X95600000Y-116400000D03*
%TD*%
D20*
%TO.N,/SDA0*%
X141600000Y-111400000D02*
X142200000Y-110800000D01*
X140400000Y-111400000D02*
X141600000Y-111400000D01*
%TO.N,/SCL0*%
X140951000Y-111049000D02*
X142400000Y-109600000D01*
X140254612Y-111049000D02*
X140951000Y-111049000D01*
X126000000Y-99200000D02*
X126000000Y-82600000D01*
X137849000Y-111049000D02*
X126000000Y-99200000D01*
X140254612Y-111049000D02*
X137849000Y-111049000D01*
%TO.N,/SDA0*%
X125449000Y-85249000D02*
X125449000Y-82351000D01*
X125600000Y-85400000D02*
X125449000Y-85249000D01*
X125449000Y-82351000D02*
X127000000Y-80800000D01*
X125600000Y-99296388D02*
X125600000Y-85400000D01*
X140400000Y-111400000D02*
X137703612Y-111400000D01*
X137703612Y-111400000D02*
X125600000Y-99296388D01*
%TO.N,Net-(D3-A)*%
X103500000Y-117500000D02*
X103473591Y-117526409D01*
X105000000Y-117500000D02*
X103500000Y-117500000D01*
X107500000Y-120500000D02*
X107500000Y-120000000D01*
X107500000Y-120000000D02*
X105000000Y-117500000D01*
%TO.N,/LED3*%
X94400000Y-115979232D02*
X94400000Y-113000000D01*
X97920768Y-119500000D02*
X94400000Y-115979232D01*
X100700000Y-120200000D02*
X100000000Y-119500000D01*
X100000000Y-119500000D02*
X97920768Y-119500000D01*
X102800000Y-120200000D02*
X100700000Y-120200000D01*
D21*
%TO.N,/+5v*%
X102200000Y-80800000D02*
X134600000Y-113200000D01*
X134600000Y-113200000D02*
X134600000Y-115800000D01*
%TO.N,/VIN*%
X123000000Y-114800000D02*
X124000000Y-115800000D01*
X96400000Y-114800000D02*
X123000000Y-114800000D01*
D20*
%TO.N,/+3.3v*%
X134600000Y-116701000D02*
X137099000Y-116701000D01*
X133901000Y-116701000D02*
X134600000Y-116701000D01*
X137099000Y-116701000D02*
X137600000Y-116200000D01*
X133800000Y-116600000D02*
X133901000Y-116701000D01*
X133200000Y-116600000D02*
X133800000Y-116600000D01*
%TO.N,/BT_ON*%
X114600000Y-75600000D02*
X120000000Y-81000000D01*
X120000000Y-81000000D02*
X120000000Y-82400000D01*
%TO.N,/WiFi_ON*%
X118694975Y-96094975D02*
X118694975Y-96305025D01*
X109220000Y-86620000D02*
X118694975Y-96094975D01*
X109220000Y-72390000D02*
X109220000Y-86620000D01*
%TO.N,Net-(U1-KEY)*%
X95600000Y-116400000D02*
X95200000Y-116000000D01*
X95200000Y-116000000D02*
X95200000Y-107200000D01*
%TD*%
%TA.AperFunction,Conductor*%
%TO.N,GND*%
G36*
X152057307Y-65919685D02*
G01*
X152103062Y-65972489D01*
X152114268Y-66024000D01*
X152114268Y-121876000D01*
X152094583Y-121943039D01*
X152041779Y-121988794D01*
X151990268Y-122000000D01*
X81388268Y-122000000D01*
X81321229Y-121980315D01*
X81275474Y-121927511D01*
X81264268Y-121876000D01*
X81264268Y-120770943D01*
X96929500Y-120770943D01*
X96929500Y-120929057D01*
X96953767Y-121019620D01*
X96970423Y-121081783D01*
X96970426Y-121081790D01*
X97049475Y-121218709D01*
X97049479Y-121218714D01*
X97049480Y-121218716D01*
X97161284Y-121330520D01*
X97161286Y-121330521D01*
X97161290Y-121330524D01*
X97298209Y-121409573D01*
X97298216Y-121409577D01*
X97450943Y-121450500D01*
X97450945Y-121450500D01*
X97609055Y-121450500D01*
X97609057Y-121450500D01*
X97761784Y-121409577D01*
X97898716Y-121330520D01*
X98010520Y-121218716D01*
X98089577Y-121081784D01*
X98130500Y-120929057D01*
X98130500Y-120770943D01*
X98629500Y-120770943D01*
X98629500Y-120929057D01*
X98653767Y-121019620D01*
X98670423Y-121081783D01*
X98670426Y-121081790D01*
X98749475Y-121218709D01*
X98749479Y-121218714D01*
X98749480Y-121218716D01*
X98861284Y-121330520D01*
X98861286Y-121330521D01*
X98861290Y-121330524D01*
X98998209Y-121409573D01*
X98998216Y-121409577D01*
X99150943Y-121450500D01*
X99150945Y-121450500D01*
X99309055Y-121450500D01*
X99309057Y-121450500D01*
X99461784Y-121409577D01*
X99598716Y-121330520D01*
X99710520Y-121218716D01*
X99789577Y-121081784D01*
X99830500Y-120929057D01*
X99830500Y-120770943D01*
X99789577Y-120618216D01*
X99759368Y-120565892D01*
X99710524Y-120481290D01*
X99710518Y-120481282D01*
X99598717Y-120369481D01*
X99598709Y-120369475D01*
X99461790Y-120290426D01*
X99461786Y-120290424D01*
X99461784Y-120290423D01*
X99309057Y-120249500D01*
X99150943Y-120249500D01*
X98998216Y-120290423D01*
X98998209Y-120290426D01*
X98861290Y-120369475D01*
X98861282Y-120369481D01*
X98749481Y-120481282D01*
X98749475Y-120481290D01*
X98670426Y-120618209D01*
X98670423Y-120618216D01*
X98629500Y-120770943D01*
X98130500Y-120770943D01*
X98089577Y-120618216D01*
X98059368Y-120565892D01*
X98010524Y-120481290D01*
X98010518Y-120481282D01*
X97898717Y-120369481D01*
X97898709Y-120369475D01*
X97761790Y-120290426D01*
X97761786Y-120290424D01*
X97761784Y-120290423D01*
X97609057Y-120249500D01*
X97450943Y-120249500D01*
X97298216Y-120290423D01*
X97298209Y-120290426D01*
X97161290Y-120369475D01*
X97161282Y-120369481D01*
X97049481Y-120481282D01*
X97049475Y-120481290D01*
X96970426Y-120618209D01*
X96970423Y-120618216D01*
X96929500Y-120770943D01*
X81264268Y-120770943D01*
X81264268Y-112934108D01*
X93899500Y-112934108D01*
X93899500Y-113065892D01*
X93913863Y-113119498D01*
X93915595Y-113130844D01*
X93915596Y-113130847D01*
X93917197Y-113141334D01*
X93917197Y-113141335D01*
X93925022Y-113162918D01*
X93926843Y-113167940D01*
X93933608Y-113193186D01*
X93940028Y-113204308D01*
X93943752Y-113214577D01*
X93943754Y-113214581D01*
X94092074Y-113623650D01*
X94099500Y-113665915D01*
X94099500Y-116018794D01*
X94103440Y-116033497D01*
X94119979Y-116095222D01*
X94142529Y-116134278D01*
X94142530Y-116134282D01*
X94142531Y-116134282D01*
X94159540Y-116163743D01*
X97680308Y-119684511D01*
X97736257Y-119740460D01*
X97736259Y-119740461D01*
X97736263Y-119740464D01*
X97804772Y-119780017D01*
X97804779Y-119780021D01*
X97881206Y-119800500D01*
X99824167Y-119800500D01*
X99891206Y-119820185D01*
X99911848Y-119836819D01*
X100459540Y-120384511D01*
X100515489Y-120440460D01*
X100515491Y-120440461D01*
X100515495Y-120440464D01*
X100584004Y-120480017D01*
X100584011Y-120480021D01*
X100660438Y-120500500D01*
X102134083Y-120500500D01*
X102176350Y-120507926D01*
X102595688Y-120659968D01*
X102606814Y-120666392D01*
X102632065Y-120673158D01*
X102658661Y-120682801D01*
X102670206Y-120686511D01*
X102673097Y-120687441D01*
X102674698Y-120687891D01*
X102674743Y-120687903D01*
X102674753Y-120687906D01*
X102678415Y-120688899D01*
X102678417Y-120688899D01*
X102685585Y-120689968D01*
X102685581Y-120689993D01*
X102706314Y-120693052D01*
X102734108Y-120700500D01*
X102734110Y-120700500D01*
X102865890Y-120700500D01*
X102865892Y-120700500D01*
X102993186Y-120666392D01*
X103107314Y-120600500D01*
X103200500Y-120507314D01*
X103266392Y-120393186D01*
X103300500Y-120265892D01*
X103300500Y-120134108D01*
X103266392Y-120006814D01*
X103200500Y-119892686D01*
X103107314Y-119799500D01*
X103050250Y-119766554D01*
X102993187Y-119733608D01*
X102919496Y-119713863D01*
X102865892Y-119699500D01*
X102734108Y-119699500D01*
X102734104Y-119699500D01*
X102687115Y-119712091D01*
X102687114Y-119712091D01*
X102680497Y-119713863D01*
X102658664Y-119717198D01*
X102632075Y-119726837D01*
X102626933Y-119728215D01*
X102626919Y-119728220D01*
X102606813Y-119733608D01*
X102606803Y-119733612D01*
X102605133Y-119734577D01*
X102585417Y-119743754D01*
X102176349Y-119892074D01*
X102134082Y-119899500D01*
X100875833Y-119899500D01*
X100808794Y-119879815D01*
X100788152Y-119863181D01*
X100184512Y-119259541D01*
X100184504Y-119259535D01*
X100115995Y-119219982D01*
X100115990Y-119219979D01*
X100090513Y-119213152D01*
X100039562Y-119199500D01*
X100039560Y-119199500D01*
X98096601Y-119199500D01*
X98029562Y-119179815D01*
X98008920Y-119163181D01*
X96306256Y-117460517D01*
X102973091Y-117460517D01*
X102973091Y-117592300D01*
X103007199Y-117719596D01*
X103040145Y-117776659D01*
X103073091Y-117833723D01*
X103166277Y-117926909D01*
X103265112Y-117983972D01*
X103280401Y-117992799D01*
X103280405Y-117992801D01*
X103407699Y-118026909D01*
X103407701Y-118026909D01*
X103539481Y-118026909D01*
X103539483Y-118026909D01*
X103611413Y-118007635D01*
X103623492Y-118005258D01*
X103629459Y-118002800D01*
X103666777Y-117992801D01*
X103692092Y-117978184D01*
X103706859Y-117970920D01*
X104097941Y-117809843D01*
X104145165Y-117800500D01*
X104824167Y-117800500D01*
X104891206Y-117820185D01*
X104911848Y-117836819D01*
X107071540Y-119996511D01*
X107079717Y-120011486D01*
X107091933Y-120023398D01*
X107096114Y-120041515D01*
X107105025Y-120057834D01*
X107103891Y-120075216D01*
X107107645Y-120091478D01*
X107100578Y-120126058D01*
X107043006Y-120286565D01*
X107033683Y-120306683D01*
X107033610Y-120306808D01*
X107033607Y-120306815D01*
X107028624Y-120325411D01*
X107025571Y-120335172D01*
X107016909Y-120359323D01*
X107012342Y-120373692D01*
X107011858Y-120375435D01*
X107010987Y-120378674D01*
X107009934Y-120385822D01*
X107009903Y-120385817D01*
X107006826Y-120406761D01*
X106999501Y-120434100D01*
X106999500Y-120434108D01*
X106999500Y-120565891D01*
X107033608Y-120693187D01*
X107066554Y-120750250D01*
X107099500Y-120807314D01*
X107192686Y-120900500D01*
X107306814Y-120966392D01*
X107434108Y-121000500D01*
X107434110Y-121000500D01*
X107565890Y-121000500D01*
X107565892Y-121000500D01*
X107693186Y-120966392D01*
X107807314Y-120900500D01*
X107900500Y-120807314D01*
X107966392Y-120693186D01*
X108000500Y-120565892D01*
X108000500Y-120434108D01*
X107966392Y-120306814D01*
X107939744Y-120260659D01*
X107928108Y-120233434D01*
X107926830Y-120229057D01*
X107829063Y-120041515D01*
X107814544Y-120013663D01*
X107808490Y-120000134D01*
X107800500Y-119978967D01*
X107800500Y-119960438D01*
X107780021Y-119884011D01*
X107740460Y-119815489D01*
X107684511Y-119759540D01*
X107683724Y-119758753D01*
X113850000Y-119758753D01*
X113850000Y-119971246D01*
X113883242Y-120181127D01*
X113883242Y-120181130D01*
X113948904Y-120383217D01*
X114045375Y-120572550D01*
X114114484Y-120667672D01*
X114731980Y-120050176D01*
X114734075Y-120057993D01*
X114799901Y-120172007D01*
X114892993Y-120265099D01*
X115007007Y-120330925D01*
X115014822Y-120333019D01*
X114397326Y-120950513D01*
X114397326Y-120950515D01*
X114492442Y-121019620D01*
X114681782Y-121116095D01*
X114883870Y-121181757D01*
X115093754Y-121215000D01*
X115306246Y-121215000D01*
X115516127Y-121181757D01*
X115516130Y-121181757D01*
X115718217Y-121116095D01*
X115907554Y-121019622D01*
X116002672Y-120950514D01*
X116002673Y-120950514D01*
X115385177Y-120333019D01*
X115392993Y-120330925D01*
X115507007Y-120265099D01*
X115600099Y-120172007D01*
X115665925Y-120057993D01*
X115668019Y-120050177D01*
X116285514Y-120667673D01*
X116285514Y-120667672D01*
X116354622Y-120572554D01*
X116451095Y-120383217D01*
X116516757Y-120181130D01*
X116516757Y-120181127D01*
X116550000Y-119971246D01*
X116550000Y-119758753D01*
X117850000Y-119758753D01*
X117850000Y-119971246D01*
X117883242Y-120181127D01*
X117883242Y-120181130D01*
X117948904Y-120383217D01*
X118045375Y-120572550D01*
X118114484Y-120667672D01*
X118731980Y-120050176D01*
X118734075Y-120057993D01*
X118799901Y-120172007D01*
X118892993Y-120265099D01*
X119007007Y-120330925D01*
X119014822Y-120333019D01*
X118397326Y-120950513D01*
X118397326Y-120950515D01*
X118492442Y-121019620D01*
X118681782Y-121116095D01*
X118883870Y-121181757D01*
X119093754Y-121215000D01*
X119306246Y-121215000D01*
X119516127Y-121181757D01*
X119516130Y-121181757D01*
X119718217Y-121116095D01*
X119907554Y-121019622D01*
X120002672Y-120950514D01*
X120002673Y-120950514D01*
X119385177Y-120333019D01*
X119392993Y-120330925D01*
X119507007Y-120265099D01*
X119600099Y-120172007D01*
X119665925Y-120057993D01*
X119668019Y-120050177D01*
X120285514Y-120667673D01*
X120285514Y-120667672D01*
X120354622Y-120572554D01*
X120451095Y-120383217D01*
X120516757Y-120181130D01*
X120516757Y-120181127D01*
X120550000Y-119971246D01*
X120550000Y-119758753D01*
X120516757Y-119548872D01*
X120516757Y-119548869D01*
X120451095Y-119346782D01*
X120354620Y-119157442D01*
X120285515Y-119062326D01*
X120285513Y-119062326D01*
X119668018Y-119679821D01*
X119665925Y-119672007D01*
X119600099Y-119557993D01*
X119507007Y-119464901D01*
X119392993Y-119399075D01*
X119385177Y-119396980D01*
X120002672Y-118779484D01*
X119907550Y-118710375D01*
X119713879Y-118611694D01*
X119714396Y-118610678D01*
X119664192Y-118570221D01*
X119642127Y-118503927D01*
X119659406Y-118436228D01*
X119710542Y-118388617D01*
X119766048Y-118375500D01*
X120069750Y-118375500D01*
X120069751Y-118375499D01*
X120084568Y-118372552D01*
X120128229Y-118363868D01*
X120128229Y-118363867D01*
X120128231Y-118363867D01*
X120194552Y-118319552D01*
X120238867Y-118253231D01*
X120238867Y-118253229D01*
X120238868Y-118253229D01*
X120250499Y-118194752D01*
X120250500Y-118194750D01*
X120250500Y-116455249D01*
X120250499Y-116455247D01*
X120238868Y-116396770D01*
X120238867Y-116396769D01*
X120194552Y-116330447D01*
X120128230Y-116286132D01*
X120128229Y-116286131D01*
X120069752Y-116274500D01*
X120069748Y-116274500D01*
X118330252Y-116274500D01*
X118330247Y-116274500D01*
X118271770Y-116286131D01*
X118271769Y-116286132D01*
X118205447Y-116330447D01*
X118161132Y-116396769D01*
X118161131Y-116396770D01*
X118149500Y-116455247D01*
X118149500Y-118194752D01*
X118161131Y-118253229D01*
X118161132Y-118253230D01*
X118205447Y-118319552D01*
X118271769Y-118363867D01*
X118271770Y-118363868D01*
X118330247Y-118375499D01*
X118330250Y-118375500D01*
X118633952Y-118375500D01*
X118700991Y-118395185D01*
X118746746Y-118447989D01*
X118756690Y-118517147D01*
X118727665Y-118580703D01*
X118685735Y-118610938D01*
X118686121Y-118611694D01*
X118492447Y-118710376D01*
X118492445Y-118710377D01*
X118397326Y-118779483D01*
X118397326Y-118779484D01*
X119014822Y-119396980D01*
X119007007Y-119399075D01*
X118892993Y-119464901D01*
X118799901Y-119557993D01*
X118734075Y-119672007D01*
X118731980Y-119679822D01*
X118114484Y-119062326D01*
X118114483Y-119062326D01*
X118045377Y-119157445D01*
X118045376Y-119157447D01*
X117948904Y-119346782D01*
X117883242Y-119548869D01*
X117883242Y-119548872D01*
X117850000Y-119758753D01*
X116550000Y-119758753D01*
X116516757Y-119548872D01*
X116516757Y-119548869D01*
X116451095Y-119346782D01*
X116354620Y-119157442D01*
X116285515Y-119062326D01*
X116285513Y-119062326D01*
X115668018Y-119679821D01*
X115665925Y-119672007D01*
X115600099Y-119557993D01*
X115507007Y-119464901D01*
X115392993Y-119399075D01*
X115385177Y-119396980D01*
X116002672Y-118779484D01*
X115907550Y-118710375D01*
X115713879Y-118611694D01*
X115714396Y-118610678D01*
X115664192Y-118570221D01*
X115642127Y-118503927D01*
X115659406Y-118436228D01*
X115710542Y-118388617D01*
X115766048Y-118375500D01*
X116069750Y-118375500D01*
X116069751Y-118375499D01*
X116084568Y-118372552D01*
X116128229Y-118363868D01*
X116128229Y-118363867D01*
X116128231Y-118363867D01*
X116194552Y-118319552D01*
X116238867Y-118253231D01*
X116238867Y-118253229D01*
X116238868Y-118253229D01*
X116250499Y-118194752D01*
X116250500Y-118194750D01*
X116250500Y-116455249D01*
X116250499Y-116455247D01*
X116238868Y-116396770D01*
X116238867Y-116396769D01*
X116194552Y-116330447D01*
X116128230Y-116286132D01*
X116128229Y-116286131D01*
X116069752Y-116274500D01*
X116069748Y-116274500D01*
X114330252Y-116274500D01*
X114330247Y-116274500D01*
X114271770Y-116286131D01*
X114271769Y-116286132D01*
X114205447Y-116330447D01*
X114161132Y-116396769D01*
X114161131Y-116396770D01*
X114149500Y-116455247D01*
X114149500Y-118194752D01*
X114161131Y-118253229D01*
X114161132Y-118253230D01*
X114205447Y-118319552D01*
X114271769Y-118363867D01*
X114271770Y-118363868D01*
X114330247Y-118375499D01*
X114330250Y-118375500D01*
X114633952Y-118375500D01*
X114700991Y-118395185D01*
X114746746Y-118447989D01*
X114756690Y-118517147D01*
X114727665Y-118580703D01*
X114685735Y-118610938D01*
X114686121Y-118611694D01*
X114492447Y-118710376D01*
X114492445Y-118710377D01*
X114397326Y-118779483D01*
X114397326Y-118779484D01*
X115014822Y-119396980D01*
X115007007Y-119399075D01*
X114892993Y-119464901D01*
X114799901Y-119557993D01*
X114734075Y-119672007D01*
X114731980Y-119679822D01*
X114114484Y-119062326D01*
X114114483Y-119062326D01*
X114045377Y-119157445D01*
X114045376Y-119157447D01*
X113948904Y-119346782D01*
X113883242Y-119548869D01*
X113883242Y-119548872D01*
X113850000Y-119758753D01*
X107683724Y-119758753D01*
X107668287Y-119743316D01*
X107666914Y-119741850D01*
X107666664Y-119741355D01*
X107663639Y-119737997D01*
X107656404Y-119731210D01*
X107656556Y-119731047D01*
X107653097Y-119728126D01*
X105184510Y-117259539D01*
X105172358Y-117252523D01*
X105160205Y-117245507D01*
X105115991Y-117219980D01*
X105115990Y-117219979D01*
X105090513Y-117213152D01*
X105039562Y-117199500D01*
X105039560Y-117199500D01*
X104134193Y-117199500D01*
X104097123Y-117193829D01*
X103605942Y-117039952D01*
X103595693Y-117037030D01*
X103594973Y-117036845D01*
X103594541Y-117036734D01*
X103594539Y-117036733D01*
X103594530Y-117036732D01*
X103592538Y-117036674D01*
X103564097Y-117032503D01*
X103539490Y-117025910D01*
X103539484Y-117025909D01*
X103539483Y-117025909D01*
X103407699Y-117025909D01*
X103280403Y-117060017D01*
X103166277Y-117125909D01*
X103166274Y-117125911D01*
X103073093Y-117219092D01*
X103073091Y-117219095D01*
X103007199Y-117333221D01*
X102973091Y-117460517D01*
X96306256Y-117460517D01*
X95856067Y-117010328D01*
X95822582Y-116949005D01*
X95827566Y-116879313D01*
X95869438Y-116823380D01*
X95881736Y-116815266D01*
X95907314Y-116800500D01*
X96000500Y-116707314D01*
X96066392Y-116593186D01*
X96100500Y-116465892D01*
X96100500Y-116334108D01*
X96066392Y-116206814D01*
X96000500Y-116092686D01*
X95907314Y-115999500D01*
X95793186Y-115933608D01*
X95751809Y-115922520D01*
X95739214Y-115918412D01*
X95728420Y-115914241D01*
X95721316Y-115909839D01*
X95580407Y-115857050D01*
X95579808Y-115856819D01*
X95552608Y-115835956D01*
X95525125Y-115815320D01*
X95524893Y-115814697D01*
X95524369Y-115814295D01*
X95512770Y-115782047D01*
X95500803Y-115749820D01*
X95500762Y-115748664D01*
X95500721Y-115748549D01*
X95500753Y-115748407D01*
X95500500Y-115741153D01*
X95500500Y-115303439D01*
X95520185Y-115236400D01*
X95572989Y-115190645D01*
X95642147Y-115180701D01*
X95705703Y-115209726D01*
X95727602Y-115234548D01*
X95778210Y-115310288D01*
X95778213Y-115310292D01*
X95889707Y-115421786D01*
X95889711Y-115421789D01*
X96020814Y-115509390D01*
X96020827Y-115509397D01*
X96074250Y-115531525D01*
X96166503Y-115569737D01*
X96319248Y-115600120D01*
X96321153Y-115600499D01*
X96321156Y-115600500D01*
X96321158Y-115600500D01*
X96478843Y-115600500D01*
X96504179Y-115595459D01*
X96586792Y-115579027D01*
X96599885Y-115577028D01*
X96603582Y-115575687D01*
X96633497Y-115569737D01*
X96725781Y-115531510D01*
X96730912Y-115529519D01*
X97584072Y-115220185D01*
X97617883Y-115207926D01*
X97660150Y-115200500D01*
X122758964Y-115200500D01*
X122826003Y-115220185D01*
X122871281Y-115271956D01*
X123094235Y-115748549D01*
X123239446Y-116058958D01*
X123251341Y-116084384D01*
X123290606Y-116179179D01*
X123307548Y-116204535D01*
X123309219Y-116208106D01*
X123311099Y-116211761D01*
X123311105Y-116211774D01*
X123311539Y-116212617D01*
X123316271Y-116221817D01*
X123317127Y-116223338D01*
X123317175Y-116223423D01*
X123319046Y-116226675D01*
X123319046Y-116226676D01*
X123319049Y-116226679D01*
X123323268Y-116231155D01*
X123336129Y-116247310D01*
X123378207Y-116310284D01*
X123378213Y-116310292D01*
X123489707Y-116421786D01*
X123489711Y-116421789D01*
X123620814Y-116509390D01*
X123620827Y-116509397D01*
X123680486Y-116534108D01*
X123766503Y-116569737D01*
X123921148Y-116600498D01*
X123921153Y-116600499D01*
X123921156Y-116600500D01*
X123921158Y-116600500D01*
X124078844Y-116600500D01*
X124078845Y-116600499D01*
X124233497Y-116569737D01*
X124379179Y-116509394D01*
X124510289Y-116421789D01*
X124621789Y-116310289D01*
X124709394Y-116179179D01*
X124769737Y-116033497D01*
X124800500Y-115878842D01*
X124800500Y-115721158D01*
X124800500Y-115721156D01*
X124800500Y-115721155D01*
X124800499Y-115721153D01*
X124796192Y-115699500D01*
X124769737Y-115566503D01*
X124746080Y-115509390D01*
X124709397Y-115420827D01*
X124709390Y-115420814D01*
X124621789Y-115289711D01*
X124621786Y-115289707D01*
X124510291Y-115178212D01*
X124484478Y-115160964D01*
X124418774Y-115117063D01*
X124408101Y-115109216D01*
X124404532Y-115107546D01*
X124396710Y-115102319D01*
X124396709Y-115102318D01*
X124379179Y-115090606D01*
X124286970Y-115052411D01*
X124281880Y-115050168D01*
X123427271Y-114650377D01*
X123392133Y-114625740D01*
X123245915Y-114479522D01*
X123245913Y-114479520D01*
X123200250Y-114453156D01*
X123154589Y-114426793D01*
X123092870Y-114410256D01*
X123052727Y-114399500D01*
X123052726Y-114399500D01*
X97660151Y-114399500D01*
X97617884Y-114392074D01*
X96730907Y-114070476D01*
X96730907Y-114070475D01*
X96729594Y-114070000D01*
X96728299Y-114069531D01*
X96633497Y-114030263D01*
X96603587Y-114024313D01*
X96599882Y-114022970D01*
X96595997Y-114021724D01*
X96595988Y-114021721D01*
X96585192Y-114018259D01*
X96583514Y-114017790D01*
X96579815Y-114016792D01*
X96579818Y-114016792D01*
X96573653Y-114016609D01*
X96553162Y-114014282D01*
X96478842Y-113999500D01*
X96321158Y-113999500D01*
X96321155Y-113999500D01*
X96166510Y-114030261D01*
X96166498Y-114030264D01*
X96020827Y-114090602D01*
X96020814Y-114090609D01*
X95889711Y-114178210D01*
X95889707Y-114178213D01*
X95778213Y-114289707D01*
X95778210Y-114289711D01*
X95727602Y-114365451D01*
X95673989Y-114410256D01*
X95604664Y-114418963D01*
X95541637Y-114388808D01*
X95504918Y-114329365D01*
X95500500Y-114296560D01*
X95500500Y-107865914D01*
X95507926Y-107823647D01*
X95659966Y-107404315D01*
X95666392Y-107393186D01*
X95673160Y-107367927D01*
X95682801Y-107341337D01*
X95687437Y-107326914D01*
X95687906Y-107325246D01*
X95688899Y-107321584D01*
X95688899Y-107321580D01*
X95689968Y-107314414D01*
X95689993Y-107314417D01*
X95693052Y-107293684D01*
X95700500Y-107265892D01*
X95700500Y-107134108D01*
X95666392Y-107006814D01*
X95600500Y-106892686D01*
X95507314Y-106799500D01*
X95450250Y-106766554D01*
X95393187Y-106733608D01*
X95329539Y-106716554D01*
X95265892Y-106699500D01*
X95134108Y-106699500D01*
X95006812Y-106733608D01*
X94892686Y-106799500D01*
X94892683Y-106799502D01*
X94799502Y-106892683D01*
X94799500Y-106892686D01*
X94733608Y-107006812D01*
X94699500Y-107134108D01*
X94699500Y-107265894D01*
X94712091Y-107312884D01*
X94712091Y-107312885D01*
X94712501Y-107314417D01*
X94713863Y-107319498D01*
X94717198Y-107341336D01*
X94726836Y-107367920D01*
X94728217Y-107373073D01*
X94728222Y-107373087D01*
X94733609Y-107393189D01*
X94733609Y-107393190D01*
X94734574Y-107394861D01*
X94743754Y-107414581D01*
X94790445Y-107543355D01*
X94892074Y-107823650D01*
X94899500Y-107865915D01*
X94899500Y-112495684D01*
X94879815Y-112562723D01*
X94827011Y-112608478D01*
X94757853Y-112618422D01*
X94713500Y-112603071D01*
X94593189Y-112533609D01*
X94593186Y-112533608D01*
X94465892Y-112499500D01*
X94334108Y-112499500D01*
X94206812Y-112533608D01*
X94092686Y-112599500D01*
X94092683Y-112599502D01*
X93999502Y-112692683D01*
X93999500Y-112692686D01*
X93933608Y-112806812D01*
X93900500Y-112930375D01*
X93899500Y-112934108D01*
X81264268Y-112934108D01*
X81264268Y-94799999D01*
X86642965Y-94799999D01*
X86642965Y-94800000D01*
X87682457Y-94800000D01*
X87650556Y-94855255D01*
X87625000Y-94950630D01*
X87625000Y-95049370D01*
X87650556Y-95144745D01*
X87682457Y-95200000D01*
X86642965Y-95200000D01*
X86652085Y-95257580D01*
X86705591Y-95422255D01*
X86784195Y-95576524D01*
X86885967Y-95716602D01*
X87008397Y-95839032D01*
X87148475Y-95940804D01*
X87302742Y-96019408D01*
X87467415Y-96072914D01*
X87638429Y-96100000D01*
X87800000Y-96100000D01*
X87800000Y-95317542D01*
X87855255Y-95349444D01*
X87950630Y-95375000D01*
X88049370Y-95375000D01*
X88144745Y-95349444D01*
X88200000Y-95317542D01*
X88200000Y-96100000D01*
X88361571Y-96100000D01*
X88532584Y-96072914D01*
X88697257Y-96019408D01*
X88851524Y-95940804D01*
X88991602Y-95839032D01*
X89114032Y-95716602D01*
X89215804Y-95576524D01*
X89294408Y-95422255D01*
X89347914Y-95257580D01*
X89357034Y-95200000D01*
X88317543Y-95200000D01*
X88349444Y-95144745D01*
X88375000Y-95049370D01*
X88375000Y-94950630D01*
X88349444Y-94855255D01*
X88317543Y-94800000D01*
X89357035Y-94800000D01*
X89357034Y-94799999D01*
X89347914Y-94742419D01*
X89294408Y-94577744D01*
X89215804Y-94423475D01*
X89114032Y-94283397D01*
X88991602Y-94160967D01*
X88851521Y-94059194D01*
X88747947Y-94006419D01*
X88697152Y-93958445D01*
X88680357Y-93890624D01*
X88702895Y-93824489D01*
X88757610Y-93781038D01*
X88763248Y-93778908D01*
X88837882Y-93752793D01*
X88947150Y-93672150D01*
X89027793Y-93562882D01*
X89050219Y-93498790D01*
X89072646Y-93434701D01*
X89072646Y-93434699D01*
X89075500Y-93404269D01*
X89075500Y-92595730D01*
X89072646Y-92565300D01*
X89072646Y-92565298D01*
X89027793Y-92437119D01*
X89027792Y-92437117D01*
X88947150Y-92327850D01*
X88837882Y-92247207D01*
X88837880Y-92247206D01*
X88709700Y-92202353D01*
X88679270Y-92199500D01*
X88679266Y-92199500D01*
X87320734Y-92199500D01*
X87320730Y-92199500D01*
X87290300Y-92202353D01*
X87290298Y-92202353D01*
X87162119Y-92247206D01*
X87162117Y-92247207D01*
X87052850Y-92327850D01*
X86972207Y-92437117D01*
X86972206Y-92437119D01*
X86927353Y-92565298D01*
X86927353Y-92565300D01*
X86924500Y-92595730D01*
X86924500Y-93404269D01*
X86927353Y-93434699D01*
X86927353Y-93434701D01*
X86972206Y-93562880D01*
X86972207Y-93562882D01*
X87052850Y-93672150D01*
X87162118Y-93752793D01*
X87236714Y-93778895D01*
X87293487Y-93819615D01*
X87319234Y-93884568D01*
X87305778Y-93953130D01*
X87257390Y-94003532D01*
X87252052Y-94006419D01*
X87148478Y-94059194D01*
X87008397Y-94160967D01*
X86885967Y-94283397D01*
X86784195Y-94423475D01*
X86705591Y-94577744D01*
X86652085Y-94742419D01*
X86642965Y-94799999D01*
X81264268Y-94799999D01*
X81264268Y-80721153D01*
X101399500Y-80721153D01*
X101399500Y-80878846D01*
X101430261Y-81033489D01*
X101430264Y-81033501D01*
X101490602Y-81179172D01*
X101490609Y-81179185D01*
X101578210Y-81310288D01*
X101578213Y-81310292D01*
X101689708Y-81421787D01*
X101689711Y-81421789D01*
X101781233Y-81482942D01*
X101791897Y-81490782D01*
X101795458Y-81492447D01*
X101803291Y-81497681D01*
X101820816Y-81509391D01*
X101820817Y-81509391D01*
X101820821Y-81509394D01*
X101913070Y-81547604D01*
X101918129Y-81549834D01*
X102772727Y-81949620D01*
X102807864Y-81974257D01*
X134163181Y-113329574D01*
X134196666Y-113390897D01*
X134199500Y-113417255D01*
X134199500Y-114539849D01*
X134192074Y-114582116D01*
X133870523Y-115468956D01*
X133870524Y-115468957D01*
X133870480Y-115469080D01*
X133869529Y-115471703D01*
X133830263Y-115566503D01*
X133824313Y-115596410D01*
X133822969Y-115600120D01*
X133821724Y-115604000D01*
X133821712Y-115604036D01*
X133818255Y-115614819D01*
X133817777Y-115616530D01*
X133816793Y-115620181D01*
X133816609Y-115626347D01*
X133814282Y-115646837D01*
X133799500Y-115721157D01*
X133799500Y-115878846D01*
X133829391Y-116029114D01*
X133830263Y-116033497D01*
X133849802Y-116080668D01*
X133857270Y-116150138D01*
X133825994Y-116212617D01*
X133765905Y-116248269D01*
X133696080Y-116245774D01*
X133692973Y-116244694D01*
X133676430Y-116238696D01*
X133404314Y-116140033D01*
X133393186Y-116133608D01*
X133367928Y-116126840D01*
X133362803Y-116124982D01*
X133341322Y-116117193D01*
X133326950Y-116112572D01*
X133325249Y-116112094D01*
X133321578Y-116111098D01*
X133314410Y-116110029D01*
X133314413Y-116110005D01*
X133293678Y-116106945D01*
X133265893Y-116099500D01*
X133265892Y-116099500D01*
X133134108Y-116099500D01*
X133006812Y-116133608D01*
X132892686Y-116199500D01*
X132892683Y-116199502D01*
X132799502Y-116292683D01*
X132799500Y-116292686D01*
X132733608Y-116406812D01*
X132717778Y-116465892D01*
X132699500Y-116534108D01*
X132699500Y-116665892D01*
X132716554Y-116729539D01*
X132733608Y-116793187D01*
X132766554Y-116850250D01*
X132799500Y-116907314D01*
X132892686Y-117000500D01*
X133006814Y-117066392D01*
X133134108Y-117100500D01*
X133134110Y-117100500D01*
X133265890Y-117100500D01*
X133265892Y-117100500D01*
X133319504Y-117086134D01*
X133341337Y-117082801D01*
X133367927Y-117073160D01*
X133393186Y-117066392D01*
X133394849Y-117065431D01*
X133414581Y-117056243D01*
X133667875Y-116964404D01*
X133737610Y-116960059D01*
X133772142Y-116973592D01*
X133785008Y-116981020D01*
X133785009Y-116981020D01*
X133785012Y-116981022D01*
X133861438Y-117001500D01*
X133861440Y-117001500D01*
X137138560Y-117001500D01*
X137138562Y-117001500D01*
X137214989Y-116981021D01*
X137283511Y-116941460D01*
X137339460Y-116885511D01*
X137341598Y-116883372D01*
X137376747Y-116858722D01*
X137780768Y-116669719D01*
X137793186Y-116666392D01*
X137815841Y-116653312D01*
X137841450Y-116641332D01*
X137855088Y-116634321D01*
X137856598Y-116633472D01*
X137859699Y-116631693D01*
X137859702Y-116631689D01*
X137865517Y-116627385D01*
X137865532Y-116627405D01*
X137882359Y-116614907D01*
X137907314Y-116600500D01*
X138000500Y-116507314D01*
X138066392Y-116393186D01*
X138100500Y-116265892D01*
X138100500Y-116134108D01*
X138066392Y-116006814D01*
X138000500Y-115892686D01*
X137907314Y-115799500D01*
X137818819Y-115748407D01*
X137793187Y-115733608D01*
X137729539Y-115716554D01*
X137665892Y-115699500D01*
X137534108Y-115699500D01*
X137406812Y-115733608D01*
X137292686Y-115799500D01*
X137199500Y-115892685D01*
X137189596Y-115909839D01*
X137171739Y-115940767D01*
X137158667Y-115958548D01*
X137146681Y-115984166D01*
X137144008Y-115988797D01*
X137133609Y-116006809D01*
X137133608Y-116006812D01*
X137133111Y-116008669D01*
X137125655Y-116029114D01*
X136985347Y-116329043D01*
X136939110Y-116381425D01*
X136873029Y-116400500D01*
X135393500Y-116400500D01*
X135326461Y-116380815D01*
X135280706Y-116328011D01*
X135270762Y-116258853D01*
X135290398Y-116207609D01*
X135296862Y-116197934D01*
X135309394Y-116179179D01*
X135369737Y-116033497D01*
X135400500Y-115878842D01*
X135400500Y-115721158D01*
X135400499Y-115721155D01*
X135380414Y-115620182D01*
X135379027Y-115613210D01*
X135377028Y-115600114D01*
X135375687Y-115596415D01*
X135369737Y-115566503D01*
X135331524Y-115474249D01*
X135329518Y-115469080D01*
X135007926Y-114582116D01*
X135000500Y-114539849D01*
X135000500Y-113147275D01*
X135000500Y-113147273D01*
X134973207Y-113045413D01*
X134920480Y-112954087D01*
X134845913Y-112879520D01*
X118907110Y-96940717D01*
X118873625Y-96879394D01*
X118878609Y-96809702D01*
X118920481Y-96753769D01*
X118932777Y-96745657D01*
X119002289Y-96705525D01*
X119095475Y-96612339D01*
X119161367Y-96498211D01*
X119195475Y-96370917D01*
X119195475Y-96239133D01*
X119161367Y-96111839D01*
X119095475Y-95997711D01*
X119002289Y-95904525D01*
X119002286Y-95904523D01*
X118995840Y-95899577D01*
X118996382Y-95898870D01*
X118990245Y-95894127D01*
X118989692Y-95894793D01*
X118616521Y-95584316D01*
X118616516Y-95584313D01*
X118613903Y-95582815D01*
X118587889Y-95562918D01*
X109556819Y-86531848D01*
X109523334Y-86470525D01*
X109520500Y-86444167D01*
X109520500Y-75534108D01*
X114099500Y-75534108D01*
X114099500Y-75665891D01*
X114133608Y-75793187D01*
X114162358Y-75842982D01*
X114199500Y-75907314D01*
X114292686Y-76000500D01*
X114340770Y-76028261D01*
X114358549Y-76041332D01*
X114384162Y-76053314D01*
X114388776Y-76055978D01*
X114388781Y-76055981D01*
X114406810Y-76066390D01*
X114406814Y-76066392D01*
X114408669Y-76066889D01*
X114429120Y-76074345D01*
X114823250Y-76258721D01*
X114858387Y-76283358D01*
X119663181Y-81088152D01*
X119696666Y-81149475D01*
X119699500Y-81175833D01*
X119699500Y-81734083D01*
X119692074Y-81776351D01*
X119543752Y-82185423D01*
X119543751Y-82185424D01*
X119540025Y-82195697D01*
X119533608Y-82206814D01*
X119526847Y-82232041D01*
X119525025Y-82237068D01*
X119517197Y-82258660D01*
X119512531Y-82273191D01*
X119512068Y-82274841D01*
X119511099Y-82278418D01*
X119510033Y-82285575D01*
X119510007Y-82285571D01*
X119506945Y-82306317D01*
X119499501Y-82334100D01*
X119499500Y-82334108D01*
X119499500Y-82465891D01*
X119533608Y-82593187D01*
X119566554Y-82650250D01*
X119599500Y-82707314D01*
X119692686Y-82800500D01*
X119806814Y-82866392D01*
X119934108Y-82900500D01*
X119934110Y-82900500D01*
X120065890Y-82900500D01*
X120065892Y-82900500D01*
X120193186Y-82866392D01*
X120307314Y-82800500D01*
X120400500Y-82707314D01*
X120466392Y-82593186D01*
X120500500Y-82465892D01*
X120500500Y-82334108D01*
X120494426Y-82311438D01*
X125148500Y-82311438D01*
X125148500Y-85288562D01*
X125162152Y-85339513D01*
X125168979Y-85364990D01*
X125168982Y-85364995D01*
X125208535Y-85433504D01*
X125208541Y-85433512D01*
X125263181Y-85488152D01*
X125296666Y-85549475D01*
X125299500Y-85575833D01*
X125299500Y-99335950D01*
X125319979Y-99412377D01*
X125319980Y-99412378D01*
X125336193Y-99440461D01*
X125359537Y-99480895D01*
X125359539Y-99480898D01*
X125359540Y-99480899D01*
X137463152Y-111584511D01*
X137519101Y-111640460D01*
X137519103Y-111640461D01*
X137519107Y-111640464D01*
X137587616Y-111680017D01*
X137587623Y-111680021D01*
X137664050Y-111700500D01*
X137664052Y-111700500D01*
X141639560Y-111700500D01*
X141639562Y-111700500D01*
X141715989Y-111680021D01*
X141784511Y-111640460D01*
X141840460Y-111584511D01*
X142088151Y-111336818D01*
X142149474Y-111303334D01*
X142175832Y-111300500D01*
X142265890Y-111300500D01*
X142265892Y-111300500D01*
X142393186Y-111266392D01*
X142507314Y-111200500D01*
X142600500Y-111107314D01*
X142666392Y-110993186D01*
X142700500Y-110865892D01*
X142700500Y-110734108D01*
X142666392Y-110606814D01*
X142600500Y-110492686D01*
X142507314Y-110399500D01*
X142507312Y-110399499D01*
X142507310Y-110399497D01*
X142390206Y-110331887D01*
X142341990Y-110281320D01*
X142328768Y-110212713D01*
X142354736Y-110147848D01*
X142411650Y-110107320D01*
X142452206Y-110100500D01*
X142465890Y-110100500D01*
X142465892Y-110100500D01*
X142593186Y-110066392D01*
X142707314Y-110000500D01*
X142800500Y-109907314D01*
X142866392Y-109793186D01*
X142900500Y-109665892D01*
X142900500Y-109534108D01*
X142866392Y-109406814D01*
X142800500Y-109292686D01*
X142707314Y-109199500D01*
X142650250Y-109166554D01*
X142593187Y-109133608D01*
X142529539Y-109116554D01*
X142465892Y-109099500D01*
X142334108Y-109099500D01*
X142206812Y-109133608D01*
X142092686Y-109199500D01*
X142092683Y-109199502D01*
X141999502Y-109292683D01*
X141999500Y-109292686D01*
X141933608Y-109406812D01*
X141899500Y-109534108D01*
X141899500Y-109624166D01*
X141879815Y-109691205D01*
X141863181Y-109711847D01*
X140862848Y-110712181D01*
X140801525Y-110745666D01*
X140775167Y-110748500D01*
X138024833Y-110748500D01*
X137957794Y-110728815D01*
X137937152Y-110712181D01*
X126336819Y-99111848D01*
X126303334Y-99050525D01*
X126300500Y-99024167D01*
X126300500Y-83265914D01*
X126307926Y-83223647D01*
X126459966Y-82804315D01*
X126466392Y-82793186D01*
X126473160Y-82767927D01*
X126482801Y-82741337D01*
X126487437Y-82726914D01*
X126487906Y-82725246D01*
X126488899Y-82721584D01*
X126488899Y-82721580D01*
X126489968Y-82714414D01*
X126489993Y-82714417D01*
X126493052Y-82693684D01*
X126500500Y-82665892D01*
X126500500Y-82534108D01*
X126466392Y-82406814D01*
X126400500Y-82292686D01*
X126307314Y-82199500D01*
X126268579Y-82177136D01*
X126220365Y-82126569D01*
X126207143Y-82057962D01*
X126233111Y-81993097D01*
X126242892Y-81982077D01*
X126741614Y-81483355D01*
X126776745Y-81458723D01*
X127180768Y-81269719D01*
X127193186Y-81266392D01*
X127215841Y-81253312D01*
X127241450Y-81241332D01*
X127255088Y-81234321D01*
X127256598Y-81233472D01*
X127259699Y-81231693D01*
X127259702Y-81231689D01*
X127265517Y-81227385D01*
X127265532Y-81227405D01*
X127282359Y-81214907D01*
X127307314Y-81200500D01*
X127400500Y-81107314D01*
X127466392Y-80993186D01*
X127500500Y-80865892D01*
X127500500Y-80734108D01*
X127466392Y-80606814D01*
X127400500Y-80492686D01*
X127307314Y-80399500D01*
X127226230Y-80352686D01*
X127193187Y-80333608D01*
X127129539Y-80316554D01*
X127065892Y-80299500D01*
X126934108Y-80299500D01*
X126806812Y-80333608D01*
X126692686Y-80399500D01*
X126599500Y-80492685D01*
X126584810Y-80518128D01*
X126571739Y-80540767D01*
X126558667Y-80558548D01*
X126546681Y-80584166D01*
X126544008Y-80588797D01*
X126533609Y-80606809D01*
X126533608Y-80606812D01*
X126533111Y-80608669D01*
X126525655Y-80629114D01*
X126341274Y-81023252D01*
X126316637Y-81058390D01*
X125264489Y-82110540D01*
X125208541Y-82166487D01*
X125208535Y-82166495D01*
X125168982Y-82235004D01*
X125168979Y-82235009D01*
X125162642Y-82258660D01*
X125148500Y-82311438D01*
X120494426Y-82311438D01*
X120487905Y-82287102D01*
X120485102Y-82273735D01*
X120482801Y-82258661D01*
X120473158Y-82232065D01*
X120466392Y-82206814D01*
X120459968Y-82195688D01*
X120307926Y-81776350D01*
X120300500Y-81734083D01*
X120300500Y-80960439D01*
X120280020Y-80884009D01*
X120280017Y-80884004D01*
X120240464Y-80815495D01*
X120240458Y-80815487D01*
X115283359Y-75858388D01*
X115258722Y-75823250D01*
X115069718Y-75419228D01*
X115066392Y-75406814D01*
X115053314Y-75384163D01*
X115041332Y-75358549D01*
X115034321Y-75344911D01*
X115033472Y-75343401D01*
X115031693Y-75340300D01*
X115031690Y-75340297D01*
X115027385Y-75334482D01*
X115027405Y-75334467D01*
X115014907Y-75317638D01*
X115000504Y-75292692D01*
X115000501Y-75292689D01*
X115000500Y-75292686D01*
X114907314Y-75199500D01*
X114850250Y-75166554D01*
X114793187Y-75133608D01*
X114729539Y-75116554D01*
X114665892Y-75099500D01*
X114534108Y-75099500D01*
X114406812Y-75133608D01*
X114292686Y-75199500D01*
X114292683Y-75199502D01*
X114199502Y-75292683D01*
X114199500Y-75292686D01*
X114133608Y-75406812D01*
X114099500Y-75534108D01*
X109520500Y-75534108D01*
X109520500Y-74220250D01*
X109540185Y-74153211D01*
X109551514Y-74138216D01*
X110216824Y-73384199D01*
X110234066Y-73355586D01*
X110237157Y-73350720D01*
X110246184Y-73337209D01*
X110258867Y-73318231D01*
X110258867Y-73318230D01*
X110258868Y-73318229D01*
X110269455Y-73265000D01*
X110270500Y-73259748D01*
X110270500Y-73253684D01*
X110270829Y-73252135D01*
X110270500Y-73250192D01*
X110270500Y-72956048D01*
X110290185Y-72889009D01*
X110342989Y-72843254D01*
X110412147Y-72833310D01*
X110475703Y-72862335D01*
X110505938Y-72904264D01*
X110506694Y-72903879D01*
X110605375Y-73097550D01*
X110674484Y-73192672D01*
X111291980Y-72575176D01*
X111294075Y-72582993D01*
X111359901Y-72697007D01*
X111452993Y-72790099D01*
X111567007Y-72855925D01*
X111574822Y-72858019D01*
X110957326Y-73475513D01*
X110957326Y-73475515D01*
X111052442Y-73544620D01*
X111241782Y-73641095D01*
X111443870Y-73706757D01*
X111653754Y-73740000D01*
X111866246Y-73740000D01*
X112076127Y-73706757D01*
X112076130Y-73706757D01*
X112278217Y-73641095D01*
X112467554Y-73544622D01*
X112562672Y-73475514D01*
X112562673Y-73475514D01*
X111945177Y-72858019D01*
X111952993Y-72855925D01*
X112067007Y-72790099D01*
X112160099Y-72697007D01*
X112225925Y-72582993D01*
X112228019Y-72575178D01*
X112845514Y-73192673D01*
X112845514Y-73192672D01*
X112914622Y-73097554D01*
X113011095Y-72908217D01*
X113068343Y-72732026D01*
X113107780Y-72674351D01*
X113172139Y-72647152D01*
X113240985Y-72659066D01*
X113292461Y-72706310D01*
X113300835Y-72722891D01*
X113369058Y-72887596D01*
X113484024Y-73059657D01*
X113630342Y-73205975D01*
X113630345Y-73205977D01*
X113802402Y-73320941D01*
X113993580Y-73400130D01*
X114196530Y-73440499D01*
X114196534Y-73440500D01*
X114196535Y-73440500D01*
X114403466Y-73440500D01*
X114403467Y-73440499D01*
X114606420Y-73400130D01*
X114797598Y-73320941D01*
X114969655Y-73205977D01*
X115115977Y-73059655D01*
X115230941Y-72887598D01*
X115310130Y-72696420D01*
X115350500Y-72493465D01*
X115350500Y-72286535D01*
X115310130Y-72083580D01*
X115230941Y-71892402D01*
X115115977Y-71720345D01*
X115115975Y-71720342D01*
X114969657Y-71574024D01*
X114829609Y-71480448D01*
X114797598Y-71459059D01*
X114742245Y-71436131D01*
X114606420Y-71379870D01*
X114606412Y-71379868D01*
X114403469Y-71339500D01*
X114403465Y-71339500D01*
X114196535Y-71339500D01*
X114196530Y-71339500D01*
X113993587Y-71379868D01*
X113993579Y-71379870D01*
X113802403Y-71459058D01*
X113630342Y-71574024D01*
X113484024Y-71720342D01*
X113369057Y-71892403D01*
X113300835Y-72057108D01*
X113256994Y-72111511D01*
X113190700Y-72133576D01*
X113123000Y-72116297D01*
X113075390Y-72065159D01*
X113068343Y-72047973D01*
X113011095Y-71871782D01*
X112914620Y-71682442D01*
X112845515Y-71587326D01*
X112845513Y-71587326D01*
X112228018Y-72204821D01*
X112225925Y-72197007D01*
X112160099Y-72082993D01*
X112067007Y-71989901D01*
X111952993Y-71924075D01*
X111945177Y-71921980D01*
X112562672Y-71304484D01*
X112467550Y-71235375D01*
X112278217Y-71138904D01*
X112076129Y-71073242D01*
X111866246Y-71040000D01*
X111653754Y-71040000D01*
X111443872Y-71073242D01*
X111443869Y-71073242D01*
X111241782Y-71138904D01*
X111052447Y-71235376D01*
X111052445Y-71235377D01*
X110957326Y-71304483D01*
X110957326Y-71304484D01*
X111574822Y-71921980D01*
X111567007Y-71924075D01*
X111452993Y-71989901D01*
X111359901Y-72082993D01*
X111294075Y-72197007D01*
X111291980Y-72204822D01*
X110674484Y-71587326D01*
X110674483Y-71587326D01*
X110605377Y-71682445D01*
X110605376Y-71682447D01*
X110506694Y-71876121D01*
X110505678Y-71875603D01*
X110465212Y-71925813D01*
X110398916Y-71947872D01*
X110331218Y-71930588D01*
X110283612Y-71879447D01*
X110270500Y-71823951D01*
X110270500Y-71520249D01*
X110270499Y-71520247D01*
X110258868Y-71461771D01*
X110257056Y-71459059D01*
X110220811Y-71404815D01*
X110214552Y-71395447D01*
X110148230Y-71351132D01*
X110148229Y-71351131D01*
X110089752Y-71339500D01*
X110089748Y-71339500D01*
X108350252Y-71339500D01*
X108350247Y-71339500D01*
X108291770Y-71351131D01*
X108291769Y-71351132D01*
X108225447Y-71395447D01*
X108181132Y-71461769D01*
X108181131Y-71461770D01*
X108169500Y-71520247D01*
X108169500Y-73259752D01*
X108181131Y-73318229D01*
X108181132Y-73318230D01*
X108207382Y-73357516D01*
X108211478Y-73364081D01*
X108211579Y-73364254D01*
X108223175Y-73384199D01*
X108888481Y-74138212D01*
X108918074Y-74201502D01*
X108919500Y-74220251D01*
X108919500Y-86653745D01*
X108899815Y-86720784D01*
X108847011Y-86766539D01*
X108777853Y-86776483D01*
X108714297Y-86747458D01*
X108707819Y-86741426D01*
X103374258Y-81407865D01*
X103349621Y-81372727D01*
X102948662Y-80515623D01*
X102909394Y-80420821D01*
X102892449Y-80395462D01*
X102890782Y-80391897D01*
X102883742Y-80378209D01*
X102882884Y-80376684D01*
X102880950Y-80373320D01*
X102876725Y-80368837D01*
X102863867Y-80352686D01*
X102821790Y-80289712D01*
X102821786Y-80289707D01*
X102710292Y-80178213D01*
X102710288Y-80178210D01*
X102579185Y-80090609D01*
X102579172Y-80090602D01*
X102433501Y-80030264D01*
X102433489Y-80030261D01*
X102278845Y-79999500D01*
X102278842Y-79999500D01*
X102121158Y-79999500D01*
X102121155Y-79999500D01*
X101966510Y-80030261D01*
X101966498Y-80030264D01*
X101820827Y-80090602D01*
X101820814Y-80090609D01*
X101689711Y-80178210D01*
X101689707Y-80178213D01*
X101578213Y-80289707D01*
X101578210Y-80289711D01*
X101490609Y-80420814D01*
X101490602Y-80420827D01*
X101430264Y-80566498D01*
X101430261Y-80566510D01*
X101399500Y-80721153D01*
X81264268Y-80721153D01*
X81264268Y-73158753D01*
X102650000Y-73158753D01*
X102650000Y-73371246D01*
X102683242Y-73581127D01*
X102683242Y-73581130D01*
X102748904Y-73783217D01*
X102845375Y-73972550D01*
X102914484Y-74067672D01*
X103531980Y-73450176D01*
X103534075Y-73457993D01*
X103599901Y-73572007D01*
X103692993Y-73665099D01*
X103807007Y-73730925D01*
X103814822Y-73733019D01*
X103197326Y-74350513D01*
X103197326Y-74350515D01*
X103292442Y-74419620D01*
X103481782Y-74516095D01*
X103683870Y-74581757D01*
X103893754Y-74615000D01*
X104106246Y-74615000D01*
X104316127Y-74581757D01*
X104316130Y-74581757D01*
X104518217Y-74516095D01*
X104707554Y-74419622D01*
X104802672Y-74350514D01*
X104802673Y-74350514D01*
X104185177Y-73733019D01*
X104192993Y-73730925D01*
X104307007Y-73665099D01*
X104400099Y-73572007D01*
X104465925Y-73457993D01*
X104468019Y-73450178D01*
X105085514Y-74067673D01*
X105085514Y-74067672D01*
X105154622Y-73972554D01*
X105251095Y-73783217D01*
X105316757Y-73581130D01*
X105316757Y-73581127D01*
X105350000Y-73371246D01*
X105350000Y-73158753D01*
X105316757Y-72948872D01*
X105316757Y-72948869D01*
X105251095Y-72746782D01*
X105154620Y-72557442D01*
X105085515Y-72462326D01*
X105085513Y-72462326D01*
X104468018Y-73079821D01*
X104465925Y-73072007D01*
X104400099Y-72957993D01*
X104307007Y-72864901D01*
X104192993Y-72799075D01*
X104185177Y-72796980D01*
X104802672Y-72179484D01*
X104707550Y-72110375D01*
X104513879Y-72011694D01*
X104514396Y-72010678D01*
X104464192Y-71970221D01*
X104442127Y-71903927D01*
X104459406Y-71836228D01*
X104510542Y-71788617D01*
X104566048Y-71775500D01*
X104869750Y-71775500D01*
X104869751Y-71775499D01*
X104884568Y-71772552D01*
X104928229Y-71763868D01*
X104928229Y-71763867D01*
X104928231Y-71763867D01*
X104994552Y-71719552D01*
X105038867Y-71653231D01*
X105038867Y-71653229D01*
X105038868Y-71653229D01*
X105050499Y-71594752D01*
X105050500Y-71594750D01*
X105050500Y-69855249D01*
X105050499Y-69855247D01*
X105038868Y-69796770D01*
X105038867Y-69796769D01*
X104994552Y-69730447D01*
X104928230Y-69686132D01*
X104928229Y-69686131D01*
X104869752Y-69674500D01*
X104869748Y-69674500D01*
X103130252Y-69674500D01*
X103130247Y-69674500D01*
X103071770Y-69686131D01*
X103071769Y-69686132D01*
X103005447Y-69730447D01*
X102961132Y-69796769D01*
X102961131Y-69796770D01*
X102949500Y-69855247D01*
X102949500Y-71594752D01*
X102961131Y-71653229D01*
X102961132Y-71653230D01*
X103005447Y-71719552D01*
X103071769Y-71763867D01*
X103071770Y-71763868D01*
X103130247Y-71775499D01*
X103130250Y-71775500D01*
X103433952Y-71775500D01*
X103500991Y-71795185D01*
X103546746Y-71847989D01*
X103556690Y-71917147D01*
X103527665Y-71980703D01*
X103485735Y-72010938D01*
X103486121Y-72011694D01*
X103292447Y-72110376D01*
X103292445Y-72110377D01*
X103197326Y-72179483D01*
X103197326Y-72179484D01*
X103814822Y-72796980D01*
X103807007Y-72799075D01*
X103692993Y-72864901D01*
X103599901Y-72957993D01*
X103534075Y-73072007D01*
X103531980Y-73079822D01*
X102914484Y-72462326D01*
X102914483Y-72462326D01*
X102845377Y-72557445D01*
X102845376Y-72557447D01*
X102748904Y-72746782D01*
X102683242Y-72948869D01*
X102683242Y-72948872D01*
X102650000Y-73158753D01*
X81264268Y-73158753D01*
X81264268Y-67710247D01*
X108169500Y-67710247D01*
X108169500Y-69449752D01*
X108181131Y-69508229D01*
X108181132Y-69508230D01*
X108225447Y-69574552D01*
X108291769Y-69618867D01*
X108291770Y-69618868D01*
X108350247Y-69630499D01*
X108350250Y-69630500D01*
X108350252Y-69630500D01*
X110089750Y-69630500D01*
X110089751Y-69630499D01*
X110104568Y-69627552D01*
X110148229Y-69618868D01*
X110148229Y-69618867D01*
X110148231Y-69618867D01*
X110214552Y-69574552D01*
X110214553Y-69574551D01*
X110231384Y-69549363D01*
X110257056Y-69510941D01*
X110258867Y-69508231D01*
X110258867Y-69508229D01*
X110258868Y-69508229D01*
X110270499Y-69449752D01*
X110270500Y-69449750D01*
X110270500Y-69146048D01*
X110290185Y-69079009D01*
X110342989Y-69033254D01*
X110412147Y-69023310D01*
X110475703Y-69052335D01*
X110505938Y-69094264D01*
X110506694Y-69093879D01*
X110605375Y-69287550D01*
X110674484Y-69382672D01*
X111291980Y-68765176D01*
X111294075Y-68772993D01*
X111359901Y-68887007D01*
X111452993Y-68980099D01*
X111567007Y-69045925D01*
X111574822Y-69048019D01*
X110957326Y-69665513D01*
X110957326Y-69665515D01*
X111052442Y-69734620D01*
X111241782Y-69831095D01*
X111443870Y-69896757D01*
X111653754Y-69930000D01*
X111866246Y-69930000D01*
X112076127Y-69896757D01*
X112076130Y-69896757D01*
X112278217Y-69831095D01*
X112282813Y-69828753D01*
X117050000Y-69828753D01*
X117050000Y-70041246D01*
X117083242Y-70251127D01*
X117083242Y-70251130D01*
X117148904Y-70453217D01*
X117245375Y-70642550D01*
X117314484Y-70737672D01*
X117931980Y-70120176D01*
X117934075Y-70127993D01*
X117999901Y-70242007D01*
X118092993Y-70335099D01*
X118207007Y-70400925D01*
X118214822Y-70403019D01*
X117597326Y-71020513D01*
X117597326Y-71020515D01*
X117692442Y-71089620D01*
X117886121Y-71188306D01*
X117885603Y-71189321D01*
X117935808Y-71229779D01*
X117957873Y-71296073D01*
X117940594Y-71363772D01*
X117889458Y-71411383D01*
X117833952Y-71424500D01*
X117530247Y-71424500D01*
X117471770Y-71436131D01*
X117471769Y-71436132D01*
X117405447Y-71480447D01*
X117361132Y-71546769D01*
X117361131Y-71546770D01*
X117349500Y-71605247D01*
X117349500Y-73344752D01*
X117361131Y-73403229D01*
X117361132Y-73403230D01*
X117405447Y-73469552D01*
X117471769Y-73513867D01*
X117471770Y-73513868D01*
X117530247Y-73525499D01*
X117530250Y-73525500D01*
X117530252Y-73525500D01*
X119269750Y-73525500D01*
X119269751Y-73525499D01*
X119284568Y-73522552D01*
X119328229Y-73513868D01*
X119328229Y-73513867D01*
X119328231Y-73513867D01*
X119394552Y-73469552D01*
X119438867Y-73403231D01*
X119438867Y-73403229D01*
X119438868Y-73403229D01*
X119450499Y-73344752D01*
X119450500Y-73344750D01*
X119450500Y-71605249D01*
X119450499Y-71605247D01*
X119438868Y-71546770D01*
X119438867Y-71546769D01*
X119394552Y-71480447D01*
X119328230Y-71436132D01*
X119328229Y-71436131D01*
X119269752Y-71424500D01*
X119269748Y-71424500D01*
X118966048Y-71424500D01*
X118899009Y-71404815D01*
X118853254Y-71352011D01*
X118843310Y-71282853D01*
X118872335Y-71219297D01*
X118914264Y-71189061D01*
X118913879Y-71188306D01*
X119107554Y-71089622D01*
X119202672Y-71020514D01*
X119202673Y-71020514D01*
X118585177Y-70403019D01*
X118592993Y-70400925D01*
X118707007Y-70335099D01*
X118800099Y-70242007D01*
X118865925Y-70127993D01*
X118868019Y-70120178D01*
X119485514Y-70737673D01*
X119485514Y-70737672D01*
X119554622Y-70642554D01*
X119651095Y-70453217D01*
X119716757Y-70251130D01*
X119716757Y-70251127D01*
X119750000Y-70041246D01*
X119750000Y-69828753D01*
X119716757Y-69618872D01*
X119716757Y-69618869D01*
X119651095Y-69416782D01*
X119554620Y-69227442D01*
X119485515Y-69132326D01*
X119485513Y-69132326D01*
X118868018Y-69749821D01*
X118865925Y-69742007D01*
X118800099Y-69627993D01*
X118707007Y-69534901D01*
X118592993Y-69469075D01*
X118585177Y-69466980D01*
X119202672Y-68849484D01*
X119107550Y-68780375D01*
X118918217Y-68683904D01*
X118716129Y-68618242D01*
X118506246Y-68585000D01*
X118293754Y-68585000D01*
X118083872Y-68618242D01*
X118083869Y-68618242D01*
X117881782Y-68683904D01*
X117692447Y-68780376D01*
X117692445Y-68780377D01*
X117597326Y-68849483D01*
X117597326Y-68849484D01*
X118214822Y-69466980D01*
X118207007Y-69469075D01*
X118092993Y-69534901D01*
X117999901Y-69627993D01*
X117934075Y-69742007D01*
X117931980Y-69749822D01*
X117314484Y-69132326D01*
X117314483Y-69132326D01*
X117245377Y-69227445D01*
X117245376Y-69227447D01*
X117148904Y-69416782D01*
X117083242Y-69618869D01*
X117083242Y-69618872D01*
X117050000Y-69828753D01*
X112282813Y-69828753D01*
X112467553Y-69734623D01*
X112482778Y-69723562D01*
X112482778Y-69723561D01*
X112562672Y-69665514D01*
X112562673Y-69665514D01*
X111945177Y-69048019D01*
X111952993Y-69045925D01*
X112067007Y-68980099D01*
X112160099Y-68887007D01*
X112225925Y-68772993D01*
X112228019Y-68765178D01*
X112845514Y-69382673D01*
X112845514Y-69382672D01*
X112914622Y-69287554D01*
X113011095Y-69098217D01*
X113068343Y-68922026D01*
X113107780Y-68864351D01*
X113172139Y-68837152D01*
X113240985Y-68849066D01*
X113292461Y-68896310D01*
X113300835Y-68912891D01*
X113369058Y-69077596D01*
X113484024Y-69249657D01*
X113630342Y-69395975D01*
X113630345Y-69395977D01*
X113802402Y-69510941D01*
X113993580Y-69590130D01*
X114196530Y-69630499D01*
X114196534Y-69630500D01*
X114196535Y-69630500D01*
X114403466Y-69630500D01*
X114403467Y-69630499D01*
X114606420Y-69590130D01*
X114797598Y-69510941D01*
X114969655Y-69395977D01*
X115115977Y-69249655D01*
X115230941Y-69077598D01*
X115310130Y-68886420D01*
X115311623Y-68878909D01*
X115312889Y-68872552D01*
X115339602Y-68738248D01*
X115350500Y-68683465D01*
X115350500Y-68476535D01*
X115310130Y-68273580D01*
X115230941Y-68082402D01*
X115115977Y-67910345D01*
X115115975Y-67910342D01*
X114969657Y-67764024D01*
X114883626Y-67706541D01*
X114797598Y-67649059D01*
X114606420Y-67569870D01*
X114606412Y-67569868D01*
X114403469Y-67529500D01*
X114403465Y-67529500D01*
X114196535Y-67529500D01*
X114196530Y-67529500D01*
X113993587Y-67569868D01*
X113993579Y-67569870D01*
X113802403Y-67649058D01*
X113630342Y-67764024D01*
X113484024Y-67910342D01*
X113369057Y-68082403D01*
X113300835Y-68247108D01*
X113256994Y-68301511D01*
X113190700Y-68323576D01*
X113123000Y-68306297D01*
X113075390Y-68255159D01*
X113068343Y-68237973D01*
X113011095Y-68061782D01*
X112914620Y-67872442D01*
X112845515Y-67777326D01*
X112845513Y-67777326D01*
X112228018Y-68394821D01*
X112225925Y-68387007D01*
X112160099Y-68272993D01*
X112067007Y-68179901D01*
X111952993Y-68114075D01*
X111945177Y-68111980D01*
X112562672Y-67494484D01*
X112467550Y-67425375D01*
X112278217Y-67328904D01*
X112076129Y-67263242D01*
X111866246Y-67230000D01*
X111653754Y-67230000D01*
X111443872Y-67263242D01*
X111443869Y-67263242D01*
X111241782Y-67328904D01*
X111052447Y-67425376D01*
X111052445Y-67425377D01*
X110957326Y-67494483D01*
X110957326Y-67494484D01*
X111574822Y-68111980D01*
X111567007Y-68114075D01*
X111452993Y-68179901D01*
X111359901Y-68272993D01*
X111294075Y-68387007D01*
X111291980Y-68394822D01*
X110674484Y-67777326D01*
X110674483Y-67777326D01*
X110605377Y-67872445D01*
X110605376Y-67872447D01*
X110506694Y-68066121D01*
X110505678Y-68065603D01*
X110465212Y-68115813D01*
X110398916Y-68137872D01*
X110331218Y-68120588D01*
X110283612Y-68069447D01*
X110270500Y-68013951D01*
X110270500Y-67710249D01*
X110270499Y-67710247D01*
X110258868Y-67651771D01*
X110257056Y-67649059D01*
X110225550Y-67601908D01*
X110214552Y-67585447D01*
X110148230Y-67541132D01*
X110148229Y-67541131D01*
X110089752Y-67529500D01*
X110089748Y-67529500D01*
X108350252Y-67529500D01*
X108350247Y-67529500D01*
X108291770Y-67541131D01*
X108291769Y-67541132D01*
X108225447Y-67585447D01*
X108181132Y-67651769D01*
X108181131Y-67651770D01*
X108169500Y-67710247D01*
X81264268Y-67710247D01*
X81264268Y-66024000D01*
X81283953Y-65956961D01*
X81336757Y-65911206D01*
X81388268Y-65900000D01*
X151990268Y-65900000D01*
X152057307Y-65919685D01*
G37*
%TD.AperFunction*%
%TD*%
%TA.AperFunction,Conductor*%
%TO.N,/SCL0*%
G36*
X126280930Y-82655835D02*
G01*
X126288358Y-82660834D01*
X126290077Y-82669622D01*
X126289608Y-82671290D01*
X126102796Y-83186524D01*
X126096755Y-83193134D01*
X126091797Y-83194236D01*
X125908203Y-83194236D01*
X125899930Y-83190809D01*
X125897204Y-83186524D01*
X125849544Y-83055078D01*
X125710391Y-82671288D01*
X125710792Y-82662344D01*
X125717402Y-82656303D01*
X125719056Y-82655837D01*
X125997682Y-82599469D01*
X126002318Y-82599469D01*
X126280930Y-82655835D01*
G37*
%TD.AperFunction*%
%TD*%
%TA.AperFunction,Conductor*%
%TO.N,/SDA0*%
G36*
X126760362Y-80639986D02*
G01*
X126761872Y-80640835D01*
X126998734Y-80797984D01*
X127002015Y-80801265D01*
X127159164Y-81038127D01*
X127160883Y-81046915D01*
X127155883Y-81054344D01*
X127154373Y-81055193D01*
X126657953Y-81287422D01*
X126649007Y-81287823D01*
X126644722Y-81285097D01*
X126514902Y-81155277D01*
X126511475Y-81147004D01*
X126512575Y-81142051D01*
X126744806Y-80645625D01*
X126751416Y-80639585D01*
X126760362Y-80639986D01*
G37*
%TD.AperFunction*%
%TD*%
%TA.AperFunction,Conductor*%
%TO.N,Net-(D3-A)*%
G36*
X103544493Y-117236050D02*
G01*
X104059625Y-117397430D01*
X104066495Y-117403173D01*
X104067827Y-117408595D01*
X104067827Y-117592165D01*
X104064400Y-117600438D01*
X104060583Y-117602983D01*
X103545230Y-117815244D01*
X103536275Y-117815226D01*
X103529956Y-117808882D01*
X103529306Y-117806746D01*
X103473060Y-117528727D01*
X103473060Y-117524089D01*
X103497523Y-117403173D01*
X103529543Y-117244898D01*
X103534543Y-117237470D01*
X103543331Y-117235751D01*
X103544493Y-117236050D01*
G37*
%TD.AperFunction*%
%TD*%
%TA.AperFunction,Conductor*%
%TO.N,Net-(D3-A)*%
G36*
X107509344Y-119873931D02*
G01*
X107511446Y-119876795D01*
X107744605Y-120324053D01*
X107745391Y-120332974D01*
X107740762Y-120339169D01*
X107504756Y-120497981D01*
X107495979Y-120499757D01*
X107495920Y-120499745D01*
X107219047Y-120444140D01*
X107211611Y-120439151D01*
X107209880Y-120430365D01*
X107210335Y-120428728D01*
X107361770Y-120006540D01*
X107364507Y-120002222D01*
X107492799Y-119873930D01*
X107501071Y-119870504D01*
X107509344Y-119873931D01*
G37*
%TD.AperFunction*%
%TD*%
%TA.AperFunction,Conductor*%
%TO.N,/LED3*%
G36*
X94680930Y-113055835D02*
G01*
X94688358Y-113060834D01*
X94690077Y-113069622D01*
X94689608Y-113071290D01*
X94502796Y-113586524D01*
X94496755Y-113593134D01*
X94491797Y-113594236D01*
X94308203Y-113594236D01*
X94299930Y-113590809D01*
X94297204Y-113586524D01*
X94249544Y-113455078D01*
X94110391Y-113071288D01*
X94110792Y-113062344D01*
X94117402Y-113056303D01*
X94119056Y-113055837D01*
X94397682Y-112999469D01*
X94402318Y-112999469D01*
X94680930Y-113055835D01*
G37*
%TD.AperFunction*%
%TD*%
%TA.AperFunction,Conductor*%
%TO.N,/LED3*%
G36*
X102737655Y-119910792D02*
G01*
X102743696Y-119917402D01*
X102744165Y-119919070D01*
X102800530Y-120197680D01*
X102800530Y-120202320D01*
X102744165Y-120480929D01*
X102739165Y-120488358D01*
X102730377Y-120490077D01*
X102728709Y-120489608D01*
X102213476Y-120302796D01*
X102206866Y-120296755D01*
X102205764Y-120291797D01*
X102205764Y-120108202D01*
X102209191Y-120099929D01*
X102213473Y-120097204D01*
X102728711Y-119910391D01*
X102737655Y-119910792D01*
G37*
%TD.AperFunction*%
%TD*%
%TA.AperFunction,Conductor*%
%TO.N,/+5v*%
G36*
X102703785Y-80477449D02*
G01*
X102704643Y-80478974D01*
X103090897Y-81304644D01*
X103178321Y-81491523D01*
X103178722Y-81500469D01*
X103175996Y-81504754D01*
X102904754Y-81775996D01*
X102896481Y-81779423D01*
X102891524Y-81778321D01*
X101878974Y-81304643D01*
X101872934Y-81298034D01*
X101873335Y-81289088D01*
X101874188Y-81287572D01*
X102197995Y-80801241D01*
X102201241Y-80797995D01*
X102687564Y-80474193D01*
X102696347Y-80472462D01*
X102703785Y-80477449D01*
G37*
%TD.AperFunction*%
%TD*%
%TA.AperFunction,Conductor*%
%TO.N,/+5v*%
G36*
X134800070Y-114614956D02*
G01*
X134802796Y-114619241D01*
X135183835Y-115670161D01*
X135183434Y-115679107D01*
X135176824Y-115685148D01*
X135175137Y-115685620D01*
X134602301Y-115800538D01*
X134597699Y-115800538D01*
X134024862Y-115685620D01*
X134017424Y-115680633D01*
X134015692Y-115671848D01*
X134016162Y-115670167D01*
X134397204Y-114619241D01*
X134403245Y-114612631D01*
X134408203Y-114611529D01*
X134791797Y-114611529D01*
X134800070Y-114614956D01*
G37*
%TD.AperFunction*%
%TD*%
%TA.AperFunction,Conductor*%
%TO.N,/VIN*%
G36*
X123308472Y-114821677D02*
G01*
X124321024Y-115295355D01*
X124327065Y-115301965D01*
X124326664Y-115310911D01*
X124325805Y-115312437D01*
X124002008Y-115798753D01*
X123998753Y-115802008D01*
X123512437Y-116125805D01*
X123503652Y-116127537D01*
X123496214Y-116122550D01*
X123495358Y-116121029D01*
X123021677Y-115108474D01*
X123021277Y-115099530D01*
X123024001Y-115095247D01*
X123295246Y-114824002D01*
X123303518Y-114820576D01*
X123308472Y-114821677D01*
G37*
%TD.AperFunction*%
%TD*%
%TA.AperFunction,Conductor*%
%TO.N,/VIN*%
G36*
X96529835Y-114216163D02*
G01*
X97580760Y-114597204D01*
X97587369Y-114603244D01*
X97588471Y-114608202D01*
X97588471Y-114991797D01*
X97585044Y-115000070D01*
X97580759Y-115002796D01*
X96529838Y-115383835D01*
X96520892Y-115383434D01*
X96514851Y-115376824D01*
X96514379Y-115375137D01*
X96439122Y-115000000D01*
X96399461Y-114802297D01*
X96399461Y-114797702D01*
X96514379Y-114224861D01*
X96519366Y-114217424D01*
X96528151Y-114215692D01*
X96529835Y-114216163D01*
G37*
%TD.AperFunction*%
%TD*%
%TA.AperFunction,Conductor*%
%TO.N,/+3.3v*%
G36*
X137360362Y-116039986D02*
G01*
X137361872Y-116040835D01*
X137598734Y-116197984D01*
X137602015Y-116201265D01*
X137759164Y-116438127D01*
X137760883Y-116446915D01*
X137755883Y-116454344D01*
X137754373Y-116455193D01*
X137257953Y-116687422D01*
X137249007Y-116687823D01*
X137244722Y-116685097D01*
X137114902Y-116555277D01*
X137111475Y-116547004D01*
X137112575Y-116542051D01*
X137344806Y-116045625D01*
X137351416Y-116039585D01*
X137360362Y-116039986D01*
G37*
%TD.AperFunction*%
%TD*%
%TA.AperFunction,Conductor*%
%TO.N,/+3.3v*%
G36*
X133271282Y-116310389D02*
G01*
X133786525Y-116497204D01*
X133793134Y-116503244D01*
X133794236Y-116508202D01*
X133794236Y-116691797D01*
X133790809Y-116700070D01*
X133786524Y-116702796D01*
X133271290Y-116889608D01*
X133262344Y-116889207D01*
X133256303Y-116882597D01*
X133255837Y-116880939D01*
X133199469Y-116602318D01*
X133199469Y-116597680D01*
X133255835Y-116319067D01*
X133260834Y-116311641D01*
X133269622Y-116309922D01*
X133271282Y-116310389D01*
G37*
%TD.AperFunction*%
%TD*%
%TA.AperFunction,Conductor*%
%TO.N,/BT_ON*%
G36*
X114854344Y-75444116D02*
G01*
X114855193Y-75445626D01*
X114927080Y-75599293D01*
X115046791Y-75855193D01*
X115087422Y-75942046D01*
X115087823Y-75950992D01*
X115085097Y-75955277D01*
X114955277Y-76085097D01*
X114947004Y-76088524D01*
X114942047Y-76087422D01*
X114791428Y-76016961D01*
X114445626Y-75855193D01*
X114439585Y-75848583D01*
X114439986Y-75839637D01*
X114440835Y-75838127D01*
X114597985Y-75601263D01*
X114601263Y-75597985D01*
X114838127Y-75440834D01*
X114846915Y-75439116D01*
X114854344Y-75444116D01*
G37*
%TD.AperFunction*%
%TD*%
%TA.AperFunction,Conductor*%
%TO.N,/BT_ON*%
G36*
X120100070Y-81809191D02*
G01*
X120102796Y-81813476D01*
X120289608Y-82328709D01*
X120289207Y-82337655D01*
X120282597Y-82343696D01*
X120280929Y-82344165D01*
X120002320Y-82400530D01*
X119997680Y-82400530D01*
X119719070Y-82344165D01*
X119711641Y-82339165D01*
X119709922Y-82330377D01*
X119710387Y-82328720D01*
X119897204Y-81813476D01*
X119903245Y-81806866D01*
X119908203Y-81805764D01*
X120091797Y-81805764D01*
X120100070Y-81809191D01*
G37*
%TD.AperFunction*%
%TD*%
%TA.AperFunction,Conductor*%
%TO.N,/WiFi_ON*%
G36*
X118485089Y-95742290D02*
G01*
X118485956Y-95743011D01*
X118853576Y-96048870D01*
X118857744Y-96056795D01*
X118855842Y-96064331D01*
X118698384Y-96301659D01*
X118690955Y-96306658D01*
X118690911Y-96306667D01*
X118690886Y-96306672D01*
X118412933Y-96361161D01*
X118404155Y-96359390D01*
X118399201Y-96351931D01*
X118399090Y-96351264D01*
X118336231Y-95882617D01*
X118338527Y-95873963D01*
X118339546Y-95872798D01*
X118469334Y-95743010D01*
X118477606Y-95739584D01*
X118485089Y-95742290D01*
G37*
%TD.AperFunction*%
%TD*%
%TA.AperFunction,Conductor*%
%TO.N,/WiFi_ON*%
G36*
X109228266Y-72397276D02*
G01*
X110062237Y-73232228D01*
X110065659Y-73240502D01*
X110062732Y-73248236D01*
X109323493Y-74086041D01*
X109315450Y-74089977D01*
X109314720Y-74090000D01*
X109125280Y-74090000D01*
X109117007Y-74086573D01*
X109116507Y-74086041D01*
X108377267Y-73248236D01*
X108374363Y-73239765D01*
X108377760Y-73232230D01*
X109211723Y-72397286D01*
X109219993Y-72393855D01*
X109228266Y-72397276D01*
G37*
%TD.AperFunction*%
%TD*%
%TA.AperFunction,Conductor*%
%TO.N,Net-(U1-KEY)*%
G36*
X95301985Y-115972193D02*
G01*
X95649223Y-116102278D01*
X95655768Y-116108389D01*
X95656595Y-116115509D01*
X95600946Y-116396223D01*
X95595975Y-116403672D01*
X95595942Y-116403694D01*
X95362332Y-116558851D01*
X95353545Y-116560574D01*
X95346113Y-116555578D01*
X95345075Y-116553644D01*
X95281953Y-116403694D01*
X95106836Y-115987689D01*
X95106785Y-115978735D01*
X95113081Y-115972366D01*
X95117620Y-115971450D01*
X95297881Y-115971450D01*
X95301985Y-115972193D01*
G37*
%TD.AperFunction*%
%TD*%
%TA.AperFunction,Conductor*%
%TO.N,Net-(U1-KEY)*%
G36*
X95480930Y-107255835D02*
G01*
X95488358Y-107260834D01*
X95490077Y-107269622D01*
X95489608Y-107271290D01*
X95302796Y-107786524D01*
X95296755Y-107793134D01*
X95291797Y-107794236D01*
X95108203Y-107794236D01*
X95099930Y-107790809D01*
X95097204Y-107786524D01*
X95049544Y-107655078D01*
X94910391Y-107271288D01*
X94910792Y-107262344D01*
X94917402Y-107256303D01*
X94919056Y-107255837D01*
X95197682Y-107199469D01*
X95202318Y-107199469D01*
X95480930Y-107255835D01*
G37*
%TD.AperFunction*%
%TD*%
M02*
