M48
; DRILL file {KiCad 9.0.5} date 2025-12-06T17:21:49+0800
; FORMAT={-:-/ absolute / metric / decimal}
; #@! TF.CreationDate,2025-12-06T17:21:49+08:00
; #@! TF.GenerationSoftware,Kicad,Pcbnew,9.0.5
; #@! TF.FileFunction,Plated,1,2,PTH
FMAT,2
METRIC
; #@! TA.AperFunction,Plated,PTH,ViaDrill
T1C0.300
; #@! TA.AperFunction,Plated,PTH,ViaDrill
T2C0.600
; #@! TA.AperFunction,Plated,PTH,ComponentDrill
T3C0.650
; #@! TA.AperFunction,Plated,PTH,ComponentDrill
T4C0.700
; #@! TA.AperFunction,Plated,PTH,ComponentDrill
T5C0.750
; #@! TA.AperFunction,Plated,PTH,ComponentDrill
T6C1.000
; #@! TA.AperFunction,Plated,PTH,ComponentDrill
T7C2.700
%
G90
G05
T1
X94.4Y-113.0
X95.2Y-107.2
X95.6Y-116.4
X102.8Y-120.2
X103.474Y-117.526
X107.5Y-120.5
X114.6Y-75.6
X118.695Y-96.305
X120.0Y-82.4
X126.0Y-82.6
X127.0Y-80.8
X133.2Y-116.6
X137.6Y-116.2
X142.2Y-110.8
X142.4Y-109.6
T2
X96.4Y-114.8
X102.2Y-80.8
X124.0Y-115.8
X134.6Y-115.8
X140.2Y-107.8
X140.4Y-105.0
T4
X97.53Y-120.85
X99.23Y-120.85
T5
X88.0Y-93.0
X88.0Y-95.0
T6
X104.0Y-70.725
X104.0Y-73.265
X109.22Y-68.58
X109.22Y-72.39
X111.76Y-68.58
X111.76Y-72.39
X114.3Y-68.58
X114.3Y-72.39
X115.2Y-117.325
X115.2Y-119.865
X118.4Y-69.935
X118.4Y-72.475
X119.2Y-117.325
X119.2Y-119.865
T7
X90.0Y-70.0
X90.0Y-119.0
X148.0Y-70.0
X148.0Y-119.0
T3
G00X123.65Y-117.77
M15
G01X123.65Y-118.17
M16
G05
G00X128.5Y-117.77
M15
G01X128.5Y-118.17
M16
G05
G00X133.55Y-117.74
M15
G01X133.55Y-118.14
M16
G05
G00X138.4Y-117.74
M15
G01X138.4Y-118.14
M16
G05
T4
G00X123.35Y-120.75
M15
G01X123.35Y-121.25
M16
G05
G00X128.8Y-120.75
M15
G01X128.8Y-121.25
M16
G05
G00X133.25Y-120.72
M15
G01X133.25Y-121.22
M16
G05
G00X138.7Y-120.72
M15
G01X138.7Y-121.22
M16
G05
M30
